{"title":"Dishoom {2016} 720p DesiScr Rip x264 AC3 {Team DUS} - jnmjy","uid":15447194,"size":2433202911,"categoryP":"video","categoryS":"movies","magnet":"?xt=urn:btih:ce1eb64f1a421ce46b6f8861b9f573aa98aa93cc&amp;dn=Dishoom+%7B2016%7D+720p+DesiScr+Rip+x264+AC3+%7BTeam+DUS%7D+-+jnmjy&amp;tr=udp%3A%2F%2Ftracker.leechers-paradise.org%3A6969&amp;tr=udp%3A%2F%2Fzer0day.ch%3A1337&amp;tr=udp%3A%2F%2Fopen.demonii.com%3A1337&amp;tr=udp%3A%2F%2Ftracker.coppersurfer.tk%3A6969&amp;tr=udp%3A%2F%2Fexodus.desync.com%3A6969","seeders":30,"leechers":7,"uploader":"makintos13","files":1,"time":1469901772,"description":"Dishoom {2016} 720p DesiScr Rip x264 AC3 {Team DUS} - jnmjy\r\n\r\nScreens:\r\n \nhttps://imgmak.com/aaw\r\n \nhttps://imgmak.com/aaJ\r\n \nhttps://imgmak.com/aaW\r\n \nhttps://imgmak.com/aad\r\n \nhttps://imgmak.com/aas\r\n \nhttps://imgmak.com/aa4\r\n \nhttps://imgmak.com/aa8\r\n\r\nNOT REAL HD MOVIE\r\n\r\nYear.............: 2016\r\nSource: DUS &amp; Junaid Exclusive \r\nRipper...........: jnmjy\r\n\r\nGeneral\r\nFormat                                   : Matroska\r\nFormat version                           : Version 2\r\nFile size                                : 2.27 GiB\r\nDuration                                 : 2h 1mn\r\nOverall bit rate                         : 2 680 Kbps\r\nEncoded date                             : UTC 2016-07-30 04:06:56\r\nWriting application                      : mkvmerge v8.5.2 ('Crosses') 32bit\r\nWriting library                          : libebml v1.3.3 + libmatroska v1.4.4\r\nDURATION                                 : 02:01:04.352000000\r\nNUMBER_OF_FRAMES                         : 227011\r\nNUMBER_OF_BYTES                          : 174344448\r\n_STATISTICS_WRITING_APP                  : mkvmerge v8.5.2 ('Crosses') 32bit\r\n_STATISTICS_WRITING_DATE_UTC             : 2016-07-30 04:06:56\r\n_STATISTICS_TAGS                         : BPS DURATION NUMBER_OF_FRAMES NUMBER_OF_BYTES\r\n\r\nVideo\r\nID                                       : 1\r\nFormat                                   : AVC\r\nFormat/Info                              : Advanced Video Codec\r\nFormat profile                           :   \r\nFormat settings, CABAC                   : Yes\r\nFormat settings, ReFrames                : 4 frames\r\nCodec ID                                 : V_MPEG4/ISO/AVC\r\nDuration                                 : 2h 1mn\r\nBit rate                                 : 2 499 Kbps\r\nWidth                                    : 1 280 pixels\r\nHeight                                   : 544 pixels\r\nDisplay aspect ratio                     : 2.35:1\r\nFrame rate mode                          : Constant\r\nFrame rate                               : 23.976 fps\r\nColor space                              : YUV\r\nChroma subsampling                       : 4:2:0\r\nBit depth                                : 8 bits\r\nScan type                                : Progressive\r\nBits/(Pixel*Frame)                       : 0.150\r\nStream size                              : 2.06 GiB (91%)\r\nWriting library                          : x264 core 148 r2638 7599210\r\nDefault                                  : Yes\r\nForced                                   : No\r\n\r\nAudio\r\nID                                       : 2\r\nFormat                                   : AC-3\r\nFormat/Info                              : Audio Coding 3\r\nMode extension                           : CM (complete main)\r\nFormat settings, Endianness              : Big\r\nCodec ID                                 : A_AC3\r\nDuration                                 : 2h 1mn\r\nBit rate mode                            : Constant\r\nBit rate                                 : 192 Kbps\r\nChannel(s)                               : 2 channels\r\nChannel positions                        : Front: L R\r\nSampling rate                            : 48.0 KHz\r\nCompression mode                         : Lossy\r\nStream size                              : 166 MiB (7%)\r\nDefault                                  : Yes\r\nForced                                   : No","torrent":{"xt":"urn:btih:ce1eb64f1a421ce46b6f8861b9f573aa98aa93cc","amp;dn":"Dishoom+%7B2016%7D+720p+DesiScr+Rip+x264+AC3+%7BTeam+DUS%7D+-+jnmjy","amp;tr":["udp%3A%2F%2Ftracker.leechers-paradise.org%3A6969","udp%3A%2F%2Fzer0day.ch%3A1337","udp%3A%2F%2Fopen.demonii.com%3A1337","udp%3A%2F%2Ftracker.coppersurfer.tk%3A6969","udp%3A%2F%2Fexodus.desync.com%3A6969"],"infoHash":"ce1eb64f1a421ce46b6f8861b9f573aa98aa93cc","infoHashBuffer":{"type":"Buffer","data":[206,30,182,79,26,66,28,228,107,111,136,97,185,245,115,170,152,170,147,204]},"announce":[],"urlList":[]}}